<svg width="1674" height="1791" viewBox="0 0 1674 1791" fill="none" xmlns="http://www.w3.org/2000/svg">
<path opacity="0.2" d="M1672.95 1227.52C1672.95 1227.52 1470.41 1082.82 1175.49 1230.55C880.565 1378.29 241.77 1925.39 68.1639 1505.09C-11.9713 1311.11 326.296 1048.15 561.38 923.312C786.669 803.668 495.572 15.8039 1.00001 1M1.00001 24.4599C444.536 37.7268 738.628 706.916 585.36 899.529C575.646 911.744 563.889 921.654 550.311 929.157C323.423 1054.4 -0.861664 1313.03 78.4641 1504.77C158.943 1699.39 340.968 1684.97 542.135 1601.08C765.057 1508.61 1010.14 1329.41 1163.59 1254.58C1452.48 1112.47 1651.48 1248.55 1651.48 1248.55M1 47.9402C424.361 60.6004 727.681 705.44 573.117 905.617C563.788 917.711 552.334 927.479 539.241 935.022C320.529 1060.65 10.248 1314.97 88.7845 1504.47C167.281 1694.11 343.983 1683.85 540.658 1606.44C759.128 1521.44 999.898 1351.23 1151.69 1278.63C1435.04 1143.13 1630.03 1269.61 1630.03 1269.61M1.00001 71.42C404.206 83.4937 716.713 703.863 560.874 911.704C551.909 923.656 540.8 933.303 528.193 940.867C317.635 1066.9 21.3576 1316.91 99.0848 1504.14C175.598 1688.79 346.755 1682.13 539.161 1611.78C752.976 1533.59 989.496 1372.75 1139.77 1302.65C1417.31 1173.22 1608.54 1290.64 1608.54 1290.64M1.00001 94.8797C384.05 106.347 705.684 702.144 548.631 917.791C540.031 929.602 529.245 939.107 517.123 946.732C314.762 1073.15 32.4471 1318.85 109.385 1503.86C183.915 1683.53 349.689 1680.86 537.683 1617.16C747.006 1546.23 979.095 1394.31 1127.87 1326.74C1399.56 1203.35 1587.07 1311.73 1587.07 1311.73M1.00001 118.36C363.895 129.221 694.574 700.344 536.388 923.879C528.152 935.528 517.71 944.933 506.074 952.577C311.888 1079.4 43.577 1320.77 119.705 1503.54C192.252 1678.21 352.664 1679.55 536.206 1622.49C741.057 1558.83 968.693 1415.81 1115.97 1350.77C1381.79 1233.39 1565.62 1332.77 1565.62 1332.77M1 141.82C343.72 152.073 683.404 698.443 524.145 929.946C516.253 941.433 506.155 950.736 495.005 958.401C308.994 1085.61 54.6664 1322.7 130.006 1503.19C200.569 1672.89 355.619 1678.21 534.729 1627.81C735.128 1571.43 958.272 1437.26 1104.07 1374.77C1364.01 1263.36 1544.15 1353.78 1544.15 1353.78M1.00001 165.3C323.564 174.947 672.132 696.441 511.902 936.054C504.334 947.359 494.621 956.561 483.936 964.287C306.101 1091.9 65.776 1324.66 140.306 1502.91C208.886 1667.61 358.593 1676.96 533.232 1633.21C729.178 1584.11 947.81 1458.8 1092.15 1398.86C1346.16 1293.37 1522.68 1374.85 1522.68 1374.85M1.00001 188.759C303.409 197.799 660.76 694.317 499.66 942.121C492.415 953.264 483.086 962.385 472.887 970.111C303.51 1098.47 76.8857 1326.56 150.626 1502.57C217.223 1662.27 361.608 1675.66 531.754 1638.53C723.289 1596.73 937.368 1480.24 1080.26 1422.86C1328.33 1323.26 1501.21 1395.86 1501.21 1395.86M1.00001 212.24C283.254 220.693 649.266 692.133 487.417 948.208C480.496 959.17 471.531 968.21 461.818 975.976C300.657 1104.76 87.9751 1328.52 160.926 1502.26C225.541 1657 364.624 1674.41 530.277 1643.89C717.401 1609.41 926.906 1501.7 1068.36 1446.91C1310.46 1353.17 1479.74 1416.92 1479.74 1416.92M1.00001 235.719C263.079 243.566 637.63 689.828 475.174 954.316C468.557 965.075 459.997 974.055 450.769 981.841C297.804 1111.03 99.105 1330.46 171.247 1501.98C233.878 1651.72 367.659 1673.22 528.8 1649.27C711.532 1622.11 916.444 1523.13 1056.46 1470.98C1292.55 1383.04 1458.29 1437.99 1458.29 1437.99M1.00001 259.179C242.923 266.419 625.852 687.421 462.931 960.383C456.617 970.96 448.442 979.839 439.7 987.686C294.951 1117.28 110.194 1332.38 181.527 1501.66C242.175 1646.42 370.674 1671.98 527.282 1654.61C705.644 1634.81 905.901 1544.53 1044.54 1495C1274.62 1412.81 1436.8 1459.02 1436.8 1459.02M1.00001 282.659C222.768 289.293 613.913 684.913 450.688 966.491C444.678 976.866 436.907 985.683 428.631 993.551C292.077 1123.55 121.304 1334.34 191.827 1501.35C250.492 1641.12 373.73 1670.81 525.805 1659.97C699.795 1647.55 895.398 1565.91 1032.64 1519.07C1256.67 1442.58 1415.35 1480.1 1415.35 1480.1M1.00001 306.119C202.613 312.145 601.792 682.284 438.445 972.558C432.718 982.731 425.352 991.488 417.582 999.395C289.224 1129.78 132.414 1336.27 202.148 1501.03C258.829 1635.82 376.806 1669.64 524.328 1665.31C693.967 1660.31 884.896 1587.24 1020.74 1543.1C1238.7 1472.25 1393.88 1501.13 1393.88 1501.13M1.00002 329.599C182.437 335.019 589.447 679.574 426.202 978.646C420.759 988.616 413.818 997.292 406.513 1005.24C286.35 1136.01 143.523 1338.19 212.448 1500.71C267.146 1630.5 379.862 1668.5 522.85 1670.65C688.139 1673.12 874.373 1608.54 1008.84 1567.12C1220.71 1501.86 1372.4 1522.14 1372.4 1522.14M1.00002 353.079C162.282 357.913 576.901 676.763 413.959 984.753C408.799 994.501 402.263 1003.14 395.443 1011.13C283.456 1142.26 154.613 1340.15 222.748 1500.44C275.463 1625.27 382.937 1667.47 521.353 1676.05C682.311 1686.02 863.809 1629.86 996.923 1591.21C1202.68 1531.47 1350.93 1543.24 1350.93 1543.24M1.00001 376.539C142.127 380.765 564.092 673.81 401.717 990.82C396.819 1000.37 390.708 1008.94 384.394 1016.95C280.583 1148.45 165.743 1342.07 233.068 1500.1C283.8 1619.93 386.013 1666.4 519.875 1681.37C676.483 1698.88 853.246 1651.03 985.024 1615.21C1184.65 1560.93 1329.46 1564.25 1329.46 1564.25M1.00002 400.018C121.972 403.638 551.019 670.756 389.474 996.907C384.86 1006.23 379.174 1014.74 373.325 1022.79C277.669 1154.65 176.832 1343.99 243.369 1499.78C292.118 1614.61 389.069 1665.37 518.398 1686.71C670.655 1711.82 842.683 1672.2 973.125 1639.24C1166.62 1590.36 1307.99 1585.28 1307.99 1585.28M1.00002 423.478C101.796 426.492 537.663 667.581 377.231 1003C372.88 1012.12 367.619 1020.57 362.276 1028.66C274.775 1160.86 187.962 1345.93 253.689 1499.47C300.455 1609.33 392.125 1664.42 516.921 1692.06C664.787 1724.83 832.12 1693.32 961.226 1663.29C1148.55 1619.7 1286.54 1606.34 1286.54 1606.34M1.00002 446.958C81.6411 449.365 523.963 664.305 364.988 1009.08C360.88 1017.98 356.064 1026.37 351.207 1034.5C271.841 1167.05 199.051 1347.87 263.989 1499.15C308.772 1604.01 395.12 1663.49 515.424 1697.4C658.878 1737.85 821.516 1714.37 949.307 1687.31C1130.48 1648.97 1265.05 1627.37 1265.05 1627.37M1.00002 470.418C61.4859 472.218 509.879 660.907 352.745 1015.15C348.9 1023.85 344.529 1032.18 340.138 1040.35C268.907 1173.24 210.161 1349.8 274.289 1498.83C317.089 1598.71 398.094 1662.58 513.946 1702.74C652.969 1750.94 810.932 1735.34 937.408 1711.36C1112.41 1678.17 1243.6 1648.42 1243.6 1648.42M1.00002 493.898C41.3307 495.111 495.43 657.388 340.502 1021.26C336.9 1029.73 332.954 1038 329.089 1046.21C265.75 1179.35 221.271 1351.74 284.61 1498.54C325.426 1593.43 401.049 1661.77 512.469 1708.12C646.979 1764.1 800.349 1756.28 925.509 1735.42C1094.36 1707.29 1222.13 1669.47 1222.13 1669.47M1.00002 517.378C21.1552 517.985 480.516 653.769 328.259 1027.35C324.9 1035.6 321.42 1043.83 318.02 1052.08C262.856 1185.62 232.38 1353.7 294.91 1498.24C333.743 1588.15 403.943 1660.94 510.992 1713.48C640.949 1777.27 789.765 1777.09 913.611 1759.47C1076.31 1736.32 1200.66 1690.53 1200.66 1690.53M1.00002 540.838C1.00002 540.838 465.137 650.007 316.016 1033.43C232.138 1249.12 224.003 1555.63 509.494 1718.84C794.986 1882.03 1179.19 1711.58 1179.19 1711.58" stroke="url(#paint0_linear_425_4034)" stroke-miterlimit="10"/>
<defs>
<linearGradient id="paint0_linear_425_4034" x1="713.761" y1="1040.7" x2="215.995" y2="1386.22" gradientUnits="userSpaceOnUse">
<stop stop-color="#5FE500"/>
<stop offset="1" stop-color="#1C49D1"/>
</linearGradient>
</defs>
</svg>
