<svg width="40" height="40" viewBox="0 0 40 40" fill="none" xmlns="http://www.w3.org/2000/svg">
<g clip-path="url(#clip0_424_3092)">
<path d="M34.1424 5.85763C30.3651 2.08037 25.3431 0 20 0C14.6569 0 9.6349 2.08037 5.85763 5.85763C2.08037 9.6349 0 14.6585 0 20C0 25.3415 2.08037 30.3651 5.85763 34.1424C9.6349 37.9196 14.6585 40 20 40C25.3415 40 30.3651 37.9196 34.1424 34.1424C37.9196 30.3651 40 25.3415 40 20C40 14.6585 37.9196 9.6349 34.1424 5.85763ZM1.99888 20.759C2.16985 16.3985 4.07925 12.3496 7.37397 9.35847C10.6607 6.37533 14.8965 4.82704 19.2938 4.99481C26.46 5.26963 32.0668 11.3254 31.7904 18.4917C31.6865 21.1904 30.5504 23.699 28.5899 25.5556C26.6342 27.4091 24.0761 28.4046 21.3741 28.371H21.1824C20.2029 28.2943 18.9582 27.9524 18.1561 26.7988C18.1082 26.73 18.0634 26.6597 18.0203 26.5878C18.0107 26.5719 18.0011 26.5575 17.9915 26.5415C15.7658 22.8218 19.2538 20.7126 19.2538 18.1977C19.2538 15.427 17.2134 14.398 16.1972 14.2494C12.1531 13.6518 10.9915 17.6528 10.8221 19.2027C10.6607 20.6823 10.8636 22.221 11.4756 23.6942C11.8782 24.6625 12.4774 25.5365 13.2204 26.289L13.2172 26.2922C15.4174 28.4925 18.2903 29.6189 21.1808 29.6716C21.2511 29.6716 21.323 29.6732 21.3933 29.6732C21.4396 29.6716 21.486 29.6732 21.5307 29.6732C24.5011 29.6732 27.3196 28.55 29.4831 26.5C31.6913 24.4084 32.9712 21.5818 33.0878 18.5428C33.3914 10.6607 27.2254 4.00096 19.3417 3.69737C19.1068 3.68778 18.8735 3.68299 18.6402 3.68299C14.152 3.68299 9.86339 5.34313 6.49836 8.39658C5.87042 8.967 5.292 9.57418 4.75993 10.2101C7.99073 5.20412 13.6151 1.88224 20 1.88224C28.7641 1.88224 36.0933 8.13613 37.7614 16.4161C37.8685 17.33 37.926 18.2664 37.926 19.2298C37.7551 23.5903 35.8456 27.6392 32.5509 30.6303C29.2642 33.6135 25.0284 35.1618 20.6311 34.994C13.4649 34.7176 7.85811 28.6634 8.13454 21.4972C8.2384 18.7984 9.37445 16.2898 11.335 14.4332C13.2907 12.5797 15.8488 11.5842 18.5508 11.6178H18.7425C19.722 11.6945 20.9667 12.0364 21.7688 13.1901C21.8167 13.2588 21.8615 13.3291 21.9046 13.401C21.9142 13.417 21.9238 13.4313 21.9334 13.4473C24.1591 17.1671 20.6711 19.2762 20.6711 21.7912C20.6711 24.5618 22.7115 25.5908 23.7277 25.7394C27.7718 26.337 28.9335 22.336 29.1028 20.7861C29.2642 19.3065 29.0613 17.7678 28.4493 16.2946C28.0467 15.3264 27.4475 14.4539 26.7045 13.6998L26.7077 13.6966C24.5075 11.4964 21.6346 10.3699 18.7441 10.3172C18.6738 10.3172 18.6019 10.3156 18.5316 10.3156C18.4853 10.3172 18.4389 10.3156 18.3942 10.3156C15.4238 10.3156 12.6053 11.4388 10.4418 13.4889C8.2336 15.5804 6.95374 18.407 6.8371 21.446C6.53351 29.3281 12.6995 35.9879 20.5832 36.2914C20.8181 36.301 21.0514 36.3058 21.2847 36.3058C25.7729 36.3058 30.0615 34.6457 33.4265 31.5922C34.1967 30.894 34.8949 30.1414 35.5197 29.3441C32.3448 34.5977 26.5767 38.1178 20.0032 38.1178C10.8876 38.1178 3.32348 31.3494 2.06919 22.5757C2.02604 21.9797 2.00208 21.3741 2.00048 20.7574L1.99888 20.759Z" fill="white"/>
</g>
<defs>
<clipPath id="clip0_424_3092">
<rect width="40" height="40" fill="white"/>
</clipPath>
</defs>
</svg>
