<svg width="40" height="36" viewBox="0 0 40 36" fill="none" xmlns="http://www.w3.org/2000/svg">
<g clip-path="url(#clip0_424_3054)">
<path d="M29.212 17.6748C29.9328 18.0763 30.5152 18.4396 31.1293 18.7316C31.5298 18.9224 31.6115 19.163 31.4714 19.5462C31.1476 20.4289 30.8456 21.3214 30.4969 22.1941C30.4268 22.37 30.2098 22.5442 30.0229 22.6072C26.8024 23.6889 23.5768 24.7574 20.3463 25.8126C20.136 25.8806 19.864 25.8756 19.6538 25.8059C16.4382 24.7541 13.2277 23.6889 10.0221 22.6089C9.82354 22.5425 9.59493 22.3567 9.51984 22.1709C9.16775 21.2833 8.86739 20.3758 8.54032 19.4766C8.42352 19.1547 8.50528 18.9672 8.82734 18.8063C9.46644 18.4861 10.0805 18.1161 10.8147 17.7063C10.0104 17.4541 9.32961 17.2219 8.63711 17.0344C8.31005 16.9448 8.19324 16.7905 8.2433 16.4637C8.34509 15.7984 8.43353 15.1331 8.5203 14.4661C8.55367 14.214 8.68717 14.1194 8.93914 14.1011C9.65167 14.0497 10.3642 13.9734 11.2136 13.8938C10.6128 13.3662 10.1256 12.9116 9.60661 12.4952C9.33629 12.2795 9.2612 12.092 9.45309 11.7884C9.81353 11.2193 10.1556 10.6403 10.4977 10.0596C10.6362 9.82571 10.7981 9.78257 11.0584 9.8788C11.7008 10.116 12.3549 10.3218 13.1409 10.5856C12.8038 9.85392 12.5385 9.24503 12.2415 8.65109C12.1113 8.39227 12.1163 8.21807 12.3649 8.04718C12.9473 7.65066 13.523 7.24419 14.097 6.8344C14.3206 6.67513 14.4892 6.70665 14.6861 6.89744C15.1583 7.35535 15.6523 7.79003 16.2179 8.30766C16.2396 8.09695 16.2613 7.9775 16.2613 7.85805C16.2613 7.43996 16.2546 7.02021 16.2496 6.60213C16.2413 5.86052 16.238 5.84559 16.9438 5.67636C17.4845 5.54696 18.0368 5.47064 18.5791 5.34952C18.9179 5.27321 19.1014 5.37109 19.2266 5.70291C19.4485 6.2869 19.7155 6.85431 20.0225 7.56273C20.3162 6.88417 20.5799 6.33502 20.7885 5.76761C20.927 5.391 21.1239 5.2533 21.526 5.35284C22.1384 5.50382 22.7575 5.62991 23.3766 5.74604C23.7303 5.81241 23.8205 6.0032 23.8054 6.34331C23.7771 6.95219 23.7971 7.56273 23.7971 8.30268C24.2243 7.91446 24.5814 7.58928 24.9385 7.26576C25.6377 6.63199 25.6443 6.62204 26.4203 7.13967C26.8558 7.43166 27.2596 7.77012 27.6885 8.07373C27.9054 8.22802 27.9087 8.38231 27.8003 8.60795C27.5066 9.21185 27.2346 9.82737 26.9192 10.5142C27.0961 10.4877 27.2062 10.486 27.3063 10.4528C27.7636 10.3052 28.2191 10.1509 28.6747 9.9966C29.3388 9.77096 29.3505 9.76267 29.7376 10.3649C30.0363 10.8311 30.2933 11.3239 30.5836 11.795C30.7538 12.0704 30.7305 12.2596 30.4618 12.4736C29.9345 12.8933 29.4406 13.3529 28.8232 13.8904C29.3004 13.9352 29.6592 13.9684 30.0179 14.0033C30.2733 14.0281 30.5269 14.0514 30.7822 14.0763C31.5248 14.1493 31.4463 13.9933 31.5932 14.7996C31.6966 15.372 31.7217 15.9577 31.7934 16.5367C31.8285 16.8137 31.7167 16.9348 31.4497 17.0078C30.7472 17.2003 30.053 17.4226 29.2136 17.6748H29.212Z" fill="#24BE00"/>
<path d="M31.4713 24.4221C33.5955 21.0608 34.233 17.4954 33.3686 13.6945C32.6711 10.6252 31.0525 8.09347 28.5778 6.1341C23.5534 2.1573 16.4949 2.12909 11.5222 6.05446C8.72882 8.26103 7.01008 11.1229 6.45107 14.6269C5.89373 18.1193 6.58457 21.3793 8.55862 24.4486C8.1014 24.5133 7.71093 24.6013 7.31712 24.6179C6.4177 24.656 5.51327 24.7074 4.61552 24.6643C2.95685 24.583 1.82215 23.6871 1.08292 22.247C0.333681 20.7871 0.126764 19.206 0.0349866 17.6C0.00495027 17.0475 0.00328159 16.4934 -5.57757e-05 15.9392C-0.00673051 14.8227 0.490537 13.9633 1.52846 13.5684C2.30106 13.2748 3.14875 13.1586 3.97308 13.0325C4.29013 12.9844 4.42696 12.9098 4.52374 12.5995C6.40101 6.57873 10.4192 2.74129 16.585 1.30619C24.7549 -0.593451 33.1033 4.39041 35.4294 12.4369C35.5529 12.8617 35.7014 13.0309 36.1753 13.0342C37.0998 13.0408 37.9992 13.2283 38.8052 13.7211C39.506 14.1491 39.9465 14.7762 39.9782 15.5859C40.0517 17.4905 39.9566 19.3868 39.3558 21.2201C39.244 21.5602 39.0972 21.8903 38.9387 22.2122C38.1694 23.7717 36.9246 24.6593 35.1591 24.6776C34.0511 24.6892 32.9414 24.5747 31.8317 24.51C31.7333 24.505 31.6365 24.4619 31.4696 24.4204L31.4713 24.4221Z" fill="#24BE00"/>
<path d="M30.4 24.779C26.9124 28.2448 23.4499 31.6874 20.0174 35.0968C16.5866 31.6824 13.1274 28.2415 9.66992 24.8006C9.78005 24.8338 9.92857 24.8736 10.0737 24.9217C13.2409 25.9686 16.4047 27.0237 19.5769 28.054C19.8372 28.1386 20.176 28.1403 20.4363 28.054C23.6084 27.0237 26.7723 25.9686 29.9394 24.9217C30.0796 24.8752 30.2214 24.8321 30.3983 24.7773L30.4 24.779Z" fill="#24BE00"/>
</g>
<defs>
<clipPath id="clip0_424_3054">
<rect width="40" height="34.1935" fill="white" transform="translate(0 0.903198)"/>
</clipPath>
</defs>
</svg>
